<svg width="145" height="131" viewBox="0 0 145 131" fill="none" xmlns="http://www.w3.org/2000/svg">
<path d="M20.12 125.968C19.568 126.752 18.788 127.144 17.78 127.144C16.78 127.144 15.996 126.752 15.428 125.968C14.876 125.176 14.6 124.12 14.6 122.8C14.6 121.472 14.876 120.42 15.428 119.644C15.996 118.852 16.78 118.456 17.78 118.456C18.788 118.456 19.568 118.852 20.12 119.644C20.68 120.42 20.96 121.472 20.96 122.8C20.96 124.128 20.68 125.184 20.12 125.968ZM16.052 125.404C16.476 126.02 17.052 126.328 17.78 126.328C18.516 126.328 19.088 126.02 19.496 125.404C19.912 124.796 20.12 123.928 20.12 122.8C20.12 121.672 19.912 120.804 19.496 120.196C19.088 119.58 18.516 119.272 17.78 119.272C17.052 119.272 16.476 119.58 16.052 120.196C15.644 120.812 15.44 121.68 15.44 122.8C15.44 123.92 15.644 124.788 16.052 125.404Z" fill="white" fill-opacity="0.25"/>
<path d="M2.18 94.368L4.4 93.6H5.12V102H4.28V94.524L2.396 95.088L2.18 94.368Z" fill="white" fill-opacity="0.25"/>
<path d="M5.82 71H0.48V70.244L3.504 67.196C4.368 66.332 4.8 65.592 4.8 64.976C4.8 64.456 4.636 64.044 4.308 63.74C3.988 63.428 3.588 63.272 3.108 63.272C2.252 63.272 1.624 63.668 1.224 64.46L0.516 64.04C0.772 63.528 1.128 63.136 1.584 62.864C2.04 62.592 2.548 62.456 3.108 62.456C3.78 62.456 4.368 62.684 4.872 63.14C5.384 63.58 5.64 64.192 5.64 64.976C5.64 65.44 5.512 65.896 5.256 66.344C5 66.784 4.608 67.268 4.08 67.796L1.68 70.184H5.82V71Z" fill="white" fill-opacity="0.25"/>
<path d="M15.52 34.392L13.564 37.092C14.228 37.172 14.78 37.432 15.22 37.872C15.66 38.288 15.88 38.852 15.88 39.564C15.88 40.356 15.604 40.988 15.052 41.46C14.516 41.916 13.852 42.144 13.06 42.144C12.428 42.144 11.868 42 11.38 41.712C10.892 41.416 10.552 41.004 10.36 40.476L11.056 40.068C11.192 40.476 11.432 40.788 11.776 41.004C12.128 41.22 12.556 41.328 13.06 41.328C13.652 41.328 14.128 41.172 14.488 40.86C14.856 40.54 15.04 40.108 15.04 39.564C15.04 39.02 14.856 38.592 14.488 38.28C14.128 37.96 13.652 37.8 13.06 37.8V37.788L13.048 37.8H12.82L12.46 37.248L14.548 34.392H10.6V33.6H15.52V34.392Z" fill="white" fill-opacity="0.25"/>
<path d="M33.58 17.528H34.66V18.32H33.58V20H32.74V18.32H28.3V17.528L31.42 11.6H32.344L29.224 17.528H32.74V14.96H33.58V17.528Z" fill="white" fill-opacity="0.25"/>
<path d="M55.764 4.984H57.18C57.972 4.984 58.636 5.216 59.172 5.68C59.724 6.136 60 6.764 60 7.564C60 8.356 59.724 8.988 59.172 9.46C58.636 9.916 57.972 10.144 57.18 10.144C56.532 10.144 55.96 9.988 55.464 9.676C54.976 9.356 54.648 8.916 54.48 8.356L55.188 7.948C55.308 8.388 55.544 8.728 55.896 8.968C56.248 9.208 56.676 9.328 57.18 9.328C57.772 9.328 58.248 9.172 58.608 8.86C58.976 8.54 59.16 8.108 59.16 7.564C59.16 7.02 58.976 6.592 58.608 6.28C58.248 5.96 57.772 5.8 57.18 5.8H54.9L55.2 1.6H59.7V2.392H55.944L55.764 4.984Z" fill="white" fill-opacity="0.25"/>
<path d="M85.18 4.6C85.996 4.6 86.672 4.86 87.208 5.38C87.736 5.9 88 6.564 88 7.372C88 8.196 87.736 8.864 87.208 9.376C86.688 9.888 86.012 10.144 85.18 10.144C84.348 10.144 83.672 9.888 83.152 9.376C82.624 8.864 82.36 8.196 82.36 7.372C82.36 6.74 82.532 6.18 82.876 5.692L85.624 1.6H86.572L84.508 4.672C84.724 4.624 84.948 4.6 85.18 4.6ZM83.74 8.788C84.116 9.148 84.596 9.328 85.18 9.328C85.772 9.328 86.248 9.148 86.608 8.788C86.976 8.428 87.16 7.956 87.16 7.372C87.16 6.788 86.976 6.316 86.608 5.956C86.248 5.596 85.772 5.416 85.18 5.416C84.596 5.416 84.116 5.596 83.74 5.956C83.38 6.316 83.2 6.788 83.2 7.372C83.2 7.956 83.38 8.428 83.74 8.788Z" fill="white" fill-opacity="0.25"/>
<path d="M108.24 15.392V14.6H113.4V15.392L110.232 23H109.356L112.524 15.392H108.24Z" fill="white" fill-opacity="0.25"/>
<path d="M130.704 37.668C131.136 37.868 131.476 38.148 131.724 38.508C131.972 38.868 132.096 39.272 132.096 39.72C132.096 40.48 131.828 41.076 131.292 41.508C130.748 41.932 130.08 42.144 129.288 42.144C128.496 42.144 127.828 41.932 127.284 41.508C126.748 41.076 126.48 40.48 126.48 39.72C126.48 39.272 126.604 38.868 126.852 38.508C127.1 38.148 127.44 37.868 127.872 37.668C127.128 37.244 126.756 36.616 126.756 35.784C126.756 35.032 127.004 34.456 127.5 34.056C128.012 33.656 128.608 33.456 129.288 33.456C129.976 33.456 130.568 33.656 131.064 34.056C131.568 34.456 131.82 35.032 131.82 35.784C131.82 36.616 131.448 37.244 130.704 37.668ZM127.596 35.784C127.596 36.248 127.756 36.616 128.076 36.888C128.404 37.16 128.808 37.296 129.288 37.296C129.768 37.296 130.168 37.16 130.488 36.888C130.816 36.616 130.98 36.248 130.98 35.784C130.98 35.296 130.824 34.924 130.512 34.668C130.2 34.404 129.792 34.272 129.288 34.272C128.784 34.272 128.376 34.404 128.064 34.668C127.752 34.924 127.596 35.296 127.596 35.784ZM127.86 40.92C128.212 41.192 128.688 41.328 129.288 41.328C129.888 41.328 130.364 41.192 130.716 40.92C131.076 40.64 131.256 40.24 131.256 39.72C131.256 39.208 131.076 38.812 130.716 38.532C130.348 38.252 129.872 38.112 129.288 38.112C128.704 38.112 128.228 38.252 127.86 38.532C127.5 38.812 127.32 39.208 127.32 39.72C127.32 40.248 127.5 40.648 127.86 40.92Z" fill="white" fill-opacity="0.25"/>
<path d="M144 65.228C144 65.86 143.828 66.42 143.484 66.908L140.736 71H139.788L141.852 67.928C141.636 67.976 141.412 68 141.18 68C140.348 68 139.672 67.744 139.152 67.232C138.624 66.72 138.36 66.052 138.36 65.228C138.36 64.42 138.624 63.756 139.152 63.236C139.688 62.716 140.364 62.456 141.18 62.456C141.996 62.456 142.672 62.716 143.208 63.236C143.736 63.756 144 64.42 144 65.228ZM139.74 63.812C139.38 64.172 139.2 64.644 139.2 65.228C139.2 65.812 139.38 66.284 139.74 66.644C140.116 67.004 140.596 67.184 141.18 67.184C141.772 67.184 142.248 67.004 142.608 66.644C142.976 66.284 143.16 65.812 143.16 65.228C143.16 64.644 142.976 64.172 142.608 63.812C142.248 63.452 141.772 63.272 141.18 63.272C140.596 63.272 140.116 63.452 139.74 63.812Z" fill="white" fill-opacity="0.25"/>
<path d="M133.18 94.368L135.4 93.6H136.12V102H135.28V94.524L133.396 95.088L133.18 94.368ZM143.198 100.968C142.646 101.752 141.866 102.144 140.858 102.144C139.858 102.144 139.074 101.752 138.506 100.968C137.954 100.176 137.678 99.12 137.678 97.8C137.678 96.472 137.954 95.42 138.506 94.644C139.074 93.852 139.858 93.456 140.858 93.456C141.866 93.456 142.646 93.852 143.198 94.644C143.758 95.42 144.038 96.472 144.038 97.8C144.038 99.128 143.758 100.184 143.198 100.968ZM139.13 100.404C139.554 101.02 140.13 101.328 140.858 101.328C141.594 101.328 142.166 101.02 142.574 100.404C142.99 99.796 143.198 98.928 143.198 97.8C143.198 96.672 142.99 95.804 142.574 95.196C142.166 94.58 141.594 94.272 140.858 94.272C140.13 94.272 139.554 94.58 139.13 95.196C138.722 95.812 138.518 96.68 138.518 97.8C138.518 98.92 138.722 99.788 139.13 100.404Z" fill="white" fill-opacity="0.25"/>
<path d="M121.18 119.368L123.4 118.6H124.12V127H123.28V119.524L121.396 120.088L121.18 119.368ZM125.258 119.368L127.478 118.6H128.198V127H127.358V119.524L125.474 120.088L125.258 119.368Z" fill="white" fill-opacity="0.25"/>
</svg>
