<svg width="44" height="47" viewBox="0 0 44 47" fill="none" xmlns="http://www.w3.org/2000/svg">
<g id="Frame 15">
<g id="image 11 (Traced)" filter="url(#filter0_d_247_47)">
<path fill-rule="evenodd" clip-rule="evenodd" d="M15.6806 6.71913C12.3538 7.66126 9.55172 8.48068 9.45362 8.54005C9.35557 8.59943 9.21336 8.73466 9.13764 8.84054L9 9.03304L9.00024 15.6388C9.00048 22.8961 8.99537 22.7813 9.36653 23.8294C10.5219 27.0919 14.6774 30.6516 20.6128 33.4633C21.5097 33.8882 21.7986 34 22 34C22.5499 34 26.057 32.1821 28.0486 30.8647C32.1363 28.1609 34.45 25.4339 34.9071 22.7813C34.9864 22.3207 34.9996 21.3084 34.9998 15.6388L35 9.03304L34.8646 8.84575C34.7901 8.74276 34.6615 8.61178 34.5787 8.55478C34.3647 8.40737 22.238 4.99242 21.9555 5.00001C21.831 5.00336 19.0073 5.77694 15.6806 6.71913Z" fill="#E13720"/>
</g>
</g>
<defs>
<filter id="filter0_d_247_47" x="0.6" y="0.6" width="42.8" height="45.8" filterUnits="userSpaceOnUse" color-interpolation-filters="sRGB">
<feFlood flood-opacity="0" result="BackgroundImageFix"/>
<feColorMatrix in="SourceAlpha" type="matrix" values="0 0 0 0 0 0 0 0 0 0 0 0 0 0 0 0 0 0 127 0" result="hardAlpha"/>
<feOffset dy="4"/>
<feGaussianBlur stdDeviation="4.2"/>
<feComposite in2="hardAlpha" operator="out"/>
<feColorMatrix type="matrix" values="0 0 0 0 0.882353 0 0 0 0 0.215686 0 0 0 0 0.12549 0 0 0 0.55 0"/>
<feBlend mode="normal" in2="BackgroundImageFix" result="effect1_dropShadow_247_47"/>
<feBlend mode="normal" in="SourceGraphic" in2="effect1_dropShadow_247_47" result="shape"/>
</filter>
</defs>
</svg>
