<svg width="173" height="149" viewBox="0 0 173 149" fill="none" xmlns="http://www.w3.org/2000/svg">
<path id="Ellipse 51" d="M26.0207 148.343C13.7894 136.381 5.37982 121.061 1.85541 104.32C-1.669 87.5786 -0.149949 70.1683 6.22048 54.2906C12.5909 38.4128 23.5266 24.7806 37.6446 15.1179C51.7627 5.45523 68.429 0.196033 85.536 0.0053718C102.643 -0.185289 119.422 4.70115 133.752 14.0468C148.082 23.3924 159.319 36.7775 166.042 52.5093C172.764 68.2412 174.671 85.6133 171.521 102.429C168.37 119.244 160.304 134.748 148.343 146.979L125.825 124.958C133.432 117.181 138.561 107.322 140.564 96.629C142.567 85.9361 141.355 74.8894 137.08 64.8856C132.805 54.8818 125.66 46.3704 116.547 40.4276C107.435 34.4847 96.7652 31.3775 85.887 31.4987C75.0088 31.62 64.4108 34.9643 55.4332 41.1087C46.4557 47.2531 39.5018 55.9217 35.4509 66.0183C31.4 76.1148 30.434 87.1859 32.6752 97.8314C34.9163 108.477 40.2639 118.219 48.0417 125.825L26.0207 148.343Z" fill="url(#paint0_radial_16_320)" fill-opacity="0.35"/>
<defs>
<radialGradient id="paint0_radial_16_320" cx="0" cy="0" r="1" gradientUnits="userSpaceOnUse" gradientTransform="translate(86.5 86.5) rotate(90) scale(86.5)">
<stop stop-color="white"/>
<stop offset="1" stop-color="white" stop-opacity="0"/>
</radialGradient>
</defs>
</svg>
