<svg width="200" height="200" viewBox="0 0 200 200" fill="none" xmlns="http://www.w3.org/2000/svg">
<path d="M30.0817 171.494C15.9415 157.666 6.21945 139.955 2.14498 120.601C-1.92948 101.247 -0.173351 81.1195 7.1913 62.7636C14.556 44.4078 27.1984 28.6481 43.5198 17.4774C59.8412 6.30663 79.1086 0.226627 98.8856 0.00621017C118.662 -0.214207 138.061 5.43486 154.627 16.239C171.193 27.0432 184.184 42.5173 191.956 60.7044C199.728 78.8915 201.932 98.9749 198.29 118.415C194.648 137.855 185.323 155.778 171.494 169.918L145.463 144.46C154.256 135.469 160.186 124.071 162.502 111.71C164.818 99.3481 163.416 86.5773 158.474 75.0122C153.532 63.4472 145.271 53.6074 134.737 46.7371C124.202 39.8668 111.867 36.2746 99.2913 36.4147C86.7154 36.5549 74.4634 40.4211 64.0847 47.5245C53.706 54.6279 45.6668 64.6494 40.9837 76.3217C36.3005 87.994 35.1838 100.793 37.7748 113.1C40.3657 125.407 46.5479 136.669 55.5395 145.463L30.0817 171.494Z" fill="url(#paint0_radial_299_222)" fill-opacity="0.35"/>
<path d="M39.646 158.101C39.094 158.885 38.314 159.277 37.306 159.277C36.306 159.277 35.522 158.885 34.954 158.101C34.402 157.309 34.126 156.253 34.126 154.933C34.126 153.605 34.402 152.553 34.954 151.777C35.522 150.985 36.306 150.589 37.306 150.589C38.314 150.589 39.094 150.985 39.646 151.777C40.206 152.553 40.486 153.605 40.486 154.933C40.486 156.261 40.206 157.317 39.646 158.101ZM35.578 157.537C36.002 158.153 36.578 158.461 37.306 158.461C38.042 158.461 38.614 158.153 39.022 157.537C39.438 156.929 39.646 156.061 39.646 154.933C39.646 153.805 39.438 152.937 39.022 152.329C38.614 151.713 38.042 151.405 37.306 151.405C36.578 151.405 36.002 151.713 35.578 152.329C35.17 152.945 34.966 153.813 34.966 154.933C34.966 156.053 35.17 156.921 35.578 157.537Z" fill="white" fill-opacity="0.25"/>
<path d="M19.8332 122.599L22.0532 121.831H22.7732V130.231H21.9332V122.755L20.0492 123.319L19.8332 122.599Z" fill="white" fill-opacity="0.25"/>
<path d="M23.1611 94.3931H17.8211V93.6371L20.8451 90.5891C21.7091 89.7251 22.1411 88.9851 22.1411 88.3691C22.1411 87.8491 21.9771 87.4371 21.6491 87.1331C21.3291 86.8211 20.9291 86.6651 20.4491 86.6651C19.5931 86.6651 18.9651 87.0611 18.5651 87.8531L17.8571 87.4331C18.1131 86.9211 18.4691 86.5291 18.9251 86.2571C19.3811 85.9851 19.8891 85.8491 20.4491 85.8491C21.1211 85.8491 21.7091 86.0771 22.2131 86.5331C22.7251 86.9731 22.9811 87.5851 22.9811 88.3691C22.9811 88.8331 22.8531 89.2891 22.5971 89.7371C22.3411 90.1771 21.9491 90.6611 21.4211 91.1891L19.0211 93.5771H23.1611V94.3931Z" fill="white" fill-opacity="0.25"/>
<path d="M34.4217 53.2591L32.4657 55.9591C33.1297 56.0391 33.6817 56.2991 34.1217 56.7391C34.5617 57.1551 34.7817 57.7191 34.7817 58.4311C34.7817 59.2231 34.5057 59.8551 33.9537 60.3271C33.4177 60.7831 32.7537 61.0111 31.9617 61.0111C31.3297 61.0111 30.7697 60.8671 30.2817 60.5791C29.7937 60.2831 29.4537 59.8711 29.2617 59.3431L29.9577 58.9351C30.0937 59.3431 30.3337 59.6551 30.6777 59.8711C31.0297 60.0871 31.4577 60.1951 31.9617 60.1951C32.5537 60.1951 33.0297 60.0391 33.3897 59.7271C33.7577 59.4071 33.9417 58.9751 33.9417 58.4311C33.9417 57.8871 33.7577 57.4591 33.3897 57.1471C33.0297 56.8271 32.5537 56.6671 31.9617 56.6671V56.6551L31.9497 56.6671H31.7217L31.3617 56.1151L33.4497 53.2591H29.5017V52.4671H34.4217V53.2591Z" fill="white" fill-opacity="0.25"/>
<path d="M55.291 32.9615H56.371V33.7535H55.291V35.4335H54.451V33.7535H50.011V32.9615L53.131 27.0335H54.055L50.935 32.9615H54.451V30.3935H55.291V32.9615Z" fill="white" fill-opacity="0.25"/>
<path d="M81.5328 18.8568H82.9488C83.7408 18.8568 84.4048 19.0888 84.9408 19.5528C85.4928 20.0088 85.7688 20.6368 85.7688 21.4368C85.7688 22.2288 85.4928 22.8608 84.9408 23.3328C84.4048 23.7888 83.7408 24.0168 82.9488 24.0168C82.3008 24.0168 81.7288 23.8608 81.2328 23.5488C80.7448 23.2288 80.4168 22.7888 80.2488 22.2288L80.9568 21.8208C81.0768 22.2608 81.3128 22.6008 81.6648 22.8408C82.0168 23.0808 82.4448 23.2008 82.9488 23.2008C83.5408 23.2008 84.0168 23.0448 84.3768 22.7328C84.7448 22.4128 84.9288 21.9808 84.9288 21.4368C84.9288 20.8928 84.7448 20.4648 84.3768 20.1528C84.0168 19.8328 83.5408 19.6728 82.9488 19.6728H80.6688L80.9688 15.4728H85.4688V16.2648H81.7128L81.5328 18.8568Z" fill="white" fill-opacity="0.25"/>
<path d="M115.319 18.4728C116.135 18.4728 116.811 18.7328 117.347 19.2528C117.875 19.7728 118.139 20.4368 118.139 21.2448C118.139 22.0688 117.875 22.7368 117.347 23.2488C116.827 23.7608 116.151 24.0168 115.319 24.0168C114.487 24.0168 113.811 23.7608 113.291 23.2488C112.763 22.7368 112.499 22.0688 112.499 21.2448C112.499 20.6128 112.671 20.0528 113.015 19.5648L115.763 15.4728H116.711L114.647 18.5448C114.863 18.4968 115.087 18.4728 115.319 18.4728ZM113.879 22.6608C114.255 23.0208 114.735 23.2008 115.319 23.2008C115.911 23.2008 116.387 23.0208 116.747 22.6608C117.115 22.3008 117.299 21.8288 117.299 21.2448C117.299 20.6608 117.115 20.1888 116.747 19.8288C116.387 19.4688 115.911 19.2888 115.319 19.2888C114.735 19.2888 114.255 19.4688 113.879 19.8288C113.519 20.1888 113.339 20.6608 113.339 21.2448C113.339 21.8288 113.519 22.3008 113.879 22.6608Z" fill="white" fill-opacity="0.25"/>
<path d="M142.437 31.2937V30.5017H147.597V31.2937L144.429 38.9017H143.553L146.721 31.2937H142.437Z" fill="white" fill-opacity="0.25"/>
<path d="M167.71 56.5351C168.142 56.7351 168.482 57.0151 168.73 57.3751C168.978 57.7351 169.102 58.1391 169.102 58.5871C169.102 59.3471 168.834 59.9431 168.298 60.3751C167.754 60.7991 167.086 61.0111 166.294 61.0111C165.502 61.0111 164.834 60.7991 164.29 60.3751C163.754 59.9431 163.486 59.3471 163.486 58.5871C163.486 58.1391 163.61 57.7351 163.858 57.3751C164.106 57.0151 164.446 56.7351 164.878 56.5351C164.134 56.1111 163.762 55.4831 163.762 54.6511C163.762 53.8991 164.01 53.3231 164.506 52.9231C165.018 52.5231 165.614 52.3231 166.294 52.3231C166.982 52.3231 167.574 52.5231 168.07 52.9231C168.574 53.3231 168.826 53.8991 168.826 54.6511C168.826 55.4831 168.454 56.1111 167.71 56.5351ZM164.602 54.6511C164.602 55.1151 164.762 55.4831 165.082 55.7551C165.41 56.0271 165.814 56.1631 166.294 56.1631C166.774 56.1631 167.174 56.0271 167.494 55.7551C167.822 55.4831 167.986 55.1151 167.986 54.6511C167.986 54.1631 167.83 53.7911 167.518 53.5351C167.206 53.2711 166.798 53.1391 166.294 53.1391C165.79 53.1391 165.382 53.2711 165.07 53.5351C164.758 53.7911 164.602 54.1631 164.602 54.6511ZM164.866 59.7871C165.218 60.0591 165.694 60.1951 166.294 60.1951C166.894 60.1951 167.37 60.0591 167.722 59.7871C168.082 59.5071 168.262 59.1071 168.262 58.5871C168.262 58.0751 168.082 57.6791 167.722 57.3991C167.354 57.1191 166.878 56.9791 166.294 56.9791C165.71 56.9791 165.234 57.1191 164.866 57.3991C164.506 57.6791 164.326 58.0751 164.326 58.5871C164.326 59.1151 164.506 59.5151 164.866 59.7871Z" fill="white" fill-opacity="0.25"/>
<path d="M182.879 88.6211C182.879 89.2531 182.707 89.8131 182.363 90.3011L179.615 94.3931H178.667L180.731 91.3211C180.515 91.3691 180.291 91.3931 180.059 91.3931C179.227 91.3931 178.551 91.1371 178.031 90.6251C177.503 90.1131 177.239 89.4451 177.239 88.6211C177.239 87.8131 177.503 87.1491 178.031 86.6291C178.567 86.1091 179.243 85.8491 180.059 85.8491C180.875 85.8491 181.551 86.1091 182.087 86.6291C182.615 87.1491 182.879 87.8131 182.879 88.6211ZM178.619 87.2051C178.259 87.5651 178.079 88.0371 178.079 88.6211C178.079 89.2051 178.259 89.6771 178.619 90.0371C178.995 90.3971 179.475 90.5771 180.059 90.5771C180.651 90.5771 181.127 90.3971 181.487 90.0371C181.855 89.6771 182.039 89.2051 182.039 88.6211C182.039 88.0371 181.855 87.5651 181.487 87.2051C181.127 86.8451 180.651 86.6651 180.059 86.6651C179.475 86.6651 178.995 86.8451 178.619 87.2051Z" fill="white" fill-opacity="0.25"/>
<path d="M171.278 122.599L173.498 121.831H174.218V130.231H173.378V122.755L171.494 123.319L171.278 122.599ZM181.296 129.199C180.744 129.983 179.964 130.375 178.956 130.375C177.956 130.375 177.172 129.983 176.604 129.199C176.052 128.407 175.776 127.351 175.776 126.031C175.776 124.703 176.052 123.651 176.604 122.875C177.172 122.083 177.956 121.687 178.956 121.687C179.964 121.687 180.744 122.083 181.296 122.875C181.856 123.651 182.136 124.703 182.136 126.031C182.136 127.359 181.856 128.415 181.296 129.199ZM177.228 128.635C177.652 129.251 178.228 129.559 178.956 129.559C179.692 129.559 180.264 129.251 180.672 128.635C181.088 128.027 181.296 127.159 181.296 126.031C181.296 124.903 181.088 124.035 180.672 123.427C180.264 122.811 179.692 122.503 178.956 122.503C178.228 122.503 177.652 122.811 177.228 123.427C176.82 124.043 176.616 124.911 176.616 126.031C176.616 127.151 176.82 128.019 177.228 128.635Z" fill="white" fill-opacity="0.25"/>
<path d="M157.405 151.501L159.625 150.733H160.345V159.133H159.505V151.657L157.621 152.221L157.405 151.501ZM161.484 151.501L163.704 150.733H164.424V159.133H163.584V151.657L161.7 152.221L161.484 151.501Z" fill="white" fill-opacity="0.25"/>
<defs>
<radialGradient id="paint0_radial_299_222" cx="0" cy="0" r="1" gradientUnits="userSpaceOnUse" gradientTransform="translate(100 100) rotate(90) scale(100)">
<stop stop-color="white"/>
<stop offset="1" stop-color="white" stop-opacity="0"/>
</radialGradient>
</defs>
</svg>
