<svg width="18" height="18" viewBox="0 0 18 18" fill="none" xmlns="http://www.w3.org/2000/svg">
<g clip-path="url(#clip0_16_293)">
<path d="M15.0664 6.24037C14.7808 6.24037 14.5493 6.47192 14.5493 6.75753V7.27468H13.5149V6.75753C13.5149 6.47192 13.2834 6.24037 12.9978 6.24037H12.1777L11.2948 5.35752C11.1979 5.26054 11.0664 5.20607 10.9292 5.20607H10.412V4.17176H10.9292C11.2148 4.17176 11.4463 3.94021 11.4463 3.6546C11.4463 3.369 11.2148 3.13745 10.9292 3.13745H5.68869C5.40308 3.13745 5.17154 3.369 5.17154 3.6546C5.17154 3.94021 5.40308 4.17176 5.68869 4.17176H6.20584V5.20607H5.68869C5.55151 5.20607 5.42001 5.26054 5.32303 5.35752L4.44018 6.24037H2.58577C2.30016 6.24037 2.06861 6.47192 2.06861 6.75753V8.82614H1.03431V6.75753C1.03431 6.47192 0.80276 6.24037 0.517154 6.24037C0.231547 6.24037 0 6.47192 0 6.75753V11.9291C0 12.2147 0.231547 12.4462 0.517154 12.4462C0.80276 12.4462 1.03431 12.2147 1.03431 11.9291V9.86045H2.06861V11.9291C2.06861 12.2147 2.30016 12.4462 2.58577 12.4462H4.44018L6.35733 14.3634C6.45432 14.4604 6.58581 14.5148 6.723 14.5148H11.9635C12.1594 14.5148 12.3384 14.4042 12.4261 14.2289L13.3174 12.4462H14.5493V12.9634C14.5493 13.249 14.7808 13.4805 15.0664 13.4805C16.4922 13.4805 17.6522 12.3205 17.6522 10.8948V8.82614C17.6522 7.40035 16.4922 6.24037 15.0664 6.24037ZM4.13723 11.4119H3.10292V7.27468H4.13723V11.4119ZM7.24015 4.17176H9.37772V5.20607H7.24015V4.17176ZM12.4806 11.807L11.6439 13.4805H6.9372L5.17154 11.7149V6.97173L5.90289 6.24037C6.11324 6.24037 10.5295 6.24037 10.7149 6.24037L11.5978 7.12322C11.6948 7.22021 11.8263 7.27468 11.9635 7.27468H12.4806C12.4806 7.48613 12.4806 11.6387 12.4806 11.807ZM14.5493 11.4119H13.5149V8.30899H14.5493V11.4119ZM16.6179 10.8948C16.6179 11.569 16.1856 12.1442 15.5836 12.3576C15.5836 11.9944 15.5836 7.50023 15.5836 7.36332C16.1856 7.57677 16.6179 8.15191 16.6179 8.82618V10.8948Z" fill="white"/>
<path d="M9.89448 9.34329H8.66265L9.32275 8.0231C9.45048 7.76762 9.34692 7.45698 9.09148 7.32925C8.836 7.20151 8.52537 7.30508 8.39763 7.56052L7.36332 9.62914C7.1918 9.97218 7.44148 10.3776 7.82587 10.3776H9.05769L8.3976 11.6978C8.26986 11.9533 8.37343 12.2639 8.62887 12.3916C8.88444 12.5194 9.19505 12.4157 9.32271 12.1604L10.357 10.0918C10.5285 9.7487 10.2789 9.34329 9.89448 9.34329Z" fill="white"/>
</g>
<defs>
<clipPath id="clip0_16_293">
<rect width="17.6522" height="17.6522" fill="white"/>
</clipPath>
</defs>
</svg>
