<svg width="18" height="18" viewBox="0 0 18 18" fill="none" xmlns="http://www.w3.org/2000/svg">
<g clip-path="url(#clip0_16_300)">
<path d="M13.3635 9.85211V7.22164L15.8748 9.73307C16.0008 9.85908 16.1659 9.92204 16.331 9.92204C16.4961 9.92204 16.6612 9.85908 16.7872 9.73307C17.0391 9.48115 17.0391 9.07268 16.7872 8.82084L13.3635 5.39701V5.00832V1.92234C13.3635 0.862345 12.4374 0 11.2992 0H6.35273C5.21455 0 4.28847 0.862345 4.28847 1.92234V5.00832V5.39701L0.864726 8.82084C0.6128 9.07277 0.6128 9.48123 0.864726 9.73307C0.990731 9.85899 1.15587 9.92204 1.32093 9.92204C1.48598 9.92204 1.65112 9.85908 1.77713 9.73307L4.28847 7.22164V9.8522L0.864726 13.2761C0.6128 13.528 0.6128 13.9365 0.864811 14.1884C0.990731 14.3144 1.15587 14.3774 1.32093 14.3774C1.48598 14.3774 1.65112 14.3144 1.77713 14.1884L4.28847 11.6769V13.8255V15.73C4.28847 16.79 5.21455 17.6523 6.35273 17.6523H11.2992C12.4374 17.6523 13.3635 16.79 13.3635 15.73V13.8254V11.6768L15.8748 14.1883C16.0008 14.3144 16.1659 14.3773 16.331 14.3773C16.4961 14.3773 16.6612 14.3144 16.7871 14.1883C17.0391 13.9364 17.0391 13.528 16.7872 13.276L13.3635 9.85211ZM12.0733 10.1196V13.1803H5.57863V10.1196C5.57863 10.1194 5.57863 10.1193 5.57863 10.1192V5.66467C5.57863 5.66442 5.57863 5.66407 5.57863 5.66381V5.65341H12.0733V5.66381C12.0733 5.66407 12.0733 5.66442 12.0733 5.66467V10.1192C12.0733 10.1193 12.0733 10.1194 12.0733 10.1196ZM6.35273 1.29016H11.2992C11.7189 1.29016 12.0733 1.57967 12.0733 1.92234V4.36324H5.57863V1.92234C5.57863 1.57967 5.93308 1.29016 6.35273 1.29016ZM11.2992 16.362H6.35273C5.93308 16.362 5.57863 16.0725 5.57863 15.7298V14.4705H12.0733V15.7299C12.0733 16.0726 11.7189 16.362 11.2992 16.362Z" fill="white"/>
</g>
<defs>
<clipPath id="clip0_16_300">
<rect width="17.6522" height="17.6522" fill="white"/>
</clipPath>
</defs>
</svg>
