<svg width="45" height="43" viewBox="0 0 45 43" fill="none" xmlns="http://www.w3.org/2000/svg">
<g style="mix-blend-mode:luminosity" filter="url(#filter0_d_16_318)">
<g filter="url(#filter1_d_16_318)">
<path fill-rule="evenodd" clip-rule="evenodd" d="M14.618 13.6809C14.2588 14.0554 13.9649 14.3711 13.9649 14.3823C13.9649 14.3936 14.1619 14.5011 14.4026 14.6212C15.8536 15.345 17.4317 16.3253 18.7524 17.3233C19.4002 17.8128 20.1422 18.4228 20.4846 18.7472L20.7137 18.9643L20.2897 19.8462C20.0565 20.3312 19.8657 20.7365 19.8657 20.7468C19.8657 20.757 20.0192 20.9212 20.2069 21.1117L20.5481 21.4579L20.4145 21.596C20.0219 22.0021 19.5421 22.8589 19.3651 23.4699C19.0656 24.5039 19.0749 25.6015 19.3916 26.5904C19.8025 27.8734 20.7053 28.9424 21.8728 29.5283C22.5164 29.8512 23.1591 30 23.9109 30C24.6628 30 25.3054 29.8512 25.9491 29.5283C26.6328 29.1852 26.8436 29.0026 28.27 27.5175L28.639 27.1334L28.8232 27.3328C28.9245 27.4425 29.3762 27.9206 29.827 28.3952L30.6466 29.2582L31.3226 28.5614C31.6944 28.1782 31.9993 27.8549 32 27.8431C32.0011 27.8251 30.3805 26.089 29.877 25.5688L29.728 25.4148L29.7977 25.1441C29.8527 24.9305 29.867 24.7446 29.8652 24.2639C29.8633 23.7193 29.8524 23.616 29.7626 23.2918C29.584 22.6469 29.2876 22.1319 28.7921 21.6055C27.6717 20.4151 25.306 17.9425 25.1768 17.8269C24.8584 17.5419 24.4312 17.3201 23.9825 17.2067C23.7245 17.1415 23.0248 17.141 22.7605 17.2058C22.6482 17.2334 22.4357 17.3051 22.2883 17.3653L22.0202 17.4747L21.6017 17.109C20.3661 16.0293 18.8213 14.9194 17.3978 14.0886C16.8204 13.7517 15.3791 13 15.3104 13C15.2888 13 14.9773 13.3064 14.618 13.6809ZM14.7095 17.9772C14.3183 18.5675 13.8186 19.4136 13.535 19.9658C13.174 20.6687 13 21.1694 13 21.5053C13 22.3359 13.6054 23.1078 14.4288 23.3272C14.7067 23.4013 15.1758 23.3908 15.4574 23.3043C16.3157 23.0405 16.9195 22.1263 16.7858 21.2932C16.6895 20.6932 16.0906 19.5078 15.1755 18.1057C15.0396 17.8975 14.9162 17.7275 14.9013 17.7279C14.8864 17.7283 14.8 17.8405 14.7095 17.9772ZM23.3177 24.3747C24.0802 25.177 24.979 26.1206 25.3151 26.4715L25.9261 27.1096L25.837 27.2049C25.788 27.2574 25.6478 27.3713 25.5253 27.458C25.0129 27.8211 24.5498 27.9706 23.9295 27.9732C23.3356 27.9756 22.8665 27.836 22.3893 27.5146C21.1362 26.6704 20.7138 24.9747 21.4108 23.5857C21.545 23.3182 21.8581 22.886 21.9041 22.9048C21.919 22.911 22.5551 23.5724 23.3177 24.3747Z" fill="white" fill-opacity="0.24" shape-rendering="crispEdges"/>
</g>
</g>
<defs>
<filter id="filter0_d_16_318" x="9" y="13" width="27" height="25" filterUnits="userSpaceOnUse" color-interpolation-filters="sRGB">
<feFlood flood-opacity="0" result="BackgroundImageFix"/>
<feColorMatrix in="SourceAlpha" type="matrix" values="0 0 0 0 0 0 0 0 0 0 0 0 0 0 0 0 0 0 127 0" result="hardAlpha"/>
<feOffset dy="4"/>
<feGaussianBlur stdDeviation="2"/>
<feComposite in2="hardAlpha" operator="out"/>
<feColorMatrix type="matrix" values="0 0 0 0 0 0 0 0 0 0 0 0 0 0 0 0 0 0 0.25 0"/>
<feBlend mode="normal" in2="BackgroundImageFix" result="effect1_dropShadow_16_318"/>
<feBlend mode="normal" in="SourceGraphic" in2="effect1_dropShadow_16_318" result="shape"/>
</filter>
<filter id="filter1_d_16_318" x="0" y="0" width="45" height="43" filterUnits="userSpaceOnUse" color-interpolation-filters="sRGB">
<feFlood flood-opacity="0" result="BackgroundImageFix"/>
<feColorMatrix in="SourceAlpha" type="matrix" values="0 0 0 0 0 0 0 0 0 0 0 0 0 0 0 0 0 0 127 0" result="hardAlpha"/>
<feOffset/>
<feGaussianBlur stdDeviation="6.5"/>
<feComposite in2="hardAlpha" operator="out"/>
<feColorMatrix type="matrix" values="0 0 0 0 0.454902 0 0 0 0 0.972549 0 0 0 0 0.27451 0 0 0 0.55 0"/>
<feBlend mode="normal" in2="BackgroundImageFix" result="effect1_dropShadow_16_318"/>
<feBlend mode="normal" in="SourceGraphic" in2="effect1_dropShadow_16_318" result="shape"/>
</filter>
</defs>
</svg>
