<svg width="18" height="18" viewBox="0 0 18 18" fill="none" xmlns="http://www.w3.org/2000/svg">
<g id="headlight 2" opacity="0.5" clip-path="url(#clip0_16_302)">
<path id="Vector" d="M11.3084 11.4773H17.6522V12.8564H11.0913C11.1711 12.4327 11.2459 11.9703 11.3084 11.4773ZM11.4808 8.82257C11.4808 9.05543 11.4765 9.28532 11.4687 9.51211H17.6522V8.13304H11.4687C11.4765 8.3597 11.4808 8.58972 11.4808 8.82257ZM11.0717 4.68535C11.153 5.10742 11.2302 5.56989 11.2951 6.06442H17.6522V4.68535H11.0717ZM9.10648 15.0858C9.14715 14.9709 10.1017 12.2322 10.1017 8.82257C10.1017 5.413 9.14715 2.6741 9.10648 2.55923L8.93302 2.0686L8.41371 2.10093C8.32967 2.10618 6.33217 2.23856 4.30625 3.0885C1.48911 4.27014 0 6.25297 0 8.82257C0 11.392 1.48911 13.3749 4.30625 14.5566C6.33217 15.4065 8.32954 15.539 8.41358 15.5442L8.93302 15.5765L9.10648 15.0858ZM8.72266 8.82257C8.72266 11.1569 8.2284 13.1928 7.96592 14.1095C7.28123 14.0171 6.03575 13.7913 4.81061 13.2728C2.53365 12.3088 1.37908 10.8116 1.37908 8.82257C1.37908 6.83355 2.53365 5.33623 4.81061 4.37236C6.03615 3.85359 7.28217 3.62774 7.96645 3.53549C8.22921 4.4502 8.72266 6.48057 8.72266 8.82257Z" fill="white"/>
</g>
<defs>
<clipPath id="clip0_16_302">
<rect width="17.6522" height="17.6522" fill="white"/>
</clipPath>
</defs>
</svg>
