<svg width="22" height="32" viewBox="0 0 22 32" fill="none" xmlns="http://www.w3.org/2000/svg">
<path fill-rule="evenodd" clip-rule="evenodd" d="M10.261 1.52957C9.79957 1.60796 9.12852 1.82766 8.70698 2.03832C8.05735 2.36304 7.65193 2.66229 7.10849 3.2182C6.3081 4.03689 5.79901 4.95675 5.49937 6.1254L5.34866 6.71308L5.32912 11.2036C5.31506 14.4341 5.32837 15.8228 5.37667 16.1524C5.57972 17.5394 6.16802 18.724 7.14461 19.7122C9.10703 21.6982 12.049 21.9663 14.287 20.363C15.3681 19.5886 16.2114 18.3945 16.592 17.0994C16.8635 16.1756 16.8715 15.9922 16.85 11.2036L16.83 6.71308L16.6812 6.132C16.3849 4.97447 15.8641 4.02968 15.0804 3.22792C14.5277 2.66253 14.1246 2.36439 13.4724 2.03832C12.7303 1.6674 12.1646 1.53568 11.2326 1.51674C10.7925 1.50776 10.3553 1.5135 10.261 1.52957ZM1.68385 13.5801C1.33009 13.7519 1.04365 14.1031 0.934838 14.4984C0.760816 15.1309 0.978158 16.9742 1.38198 18.2908C2.51464 21.9831 5.49274 24.8238 9.03016 25.586L9.6895 25.7281L9.70482 27.1721L9.72013 28.616H8.22994C7.28325 28.616 6.64306 28.642 6.47469 28.6874C6.12665 28.781 5.64133 29.2737 5.55194 29.6241C5.36832 30.344 5.65367 31.042 6.25381 31.3408L6.54624 31.4863L11.0897 31.4856C15.54 31.4848 15.6384 31.4823 15.8903 31.3602C16.2359 31.1927 16.394 31.0267 16.5546 30.6627C16.8114 30.0803 16.6894 29.4632 16.2299 29.0216C16.0538 28.8523 15.8571 28.7284 15.6954 28.6849C15.5382 28.6425 14.8655 28.616 13.9494 28.616H12.4592L12.4745 27.1721L12.4899 25.7281L13.1492 25.586C17.0992 24.7349 20.2439 21.3762 21.0953 17.0994C21.1555 16.797 21.2348 16.1646 21.2714 15.6942C21.3301 14.9418 21.3269 14.7979 21.2445 14.4984C21.1357 14.1031 20.8493 13.7519 20.4955 13.5801C19.8065 13.2455 18.8802 13.7011 18.6991 14.4635C18.666 14.6027 18.6229 14.9778 18.6034 15.2971C18.3744 19.0287 15.9849 21.9982 12.5756 22.788C11.9649 22.9294 10.3536 22.9472 9.74665 22.8191C6.27598 22.0869 3.80801 19.0784 3.57598 15.2971C3.55643 14.9778 3.51334 14.6027 3.48025 14.4635C3.29914 13.7011 2.37291 13.2455 1.68385 13.5801Z" fill="white"/>
</svg>
