<svg width="26" height="26" viewBox="0 0 26 26" fill="none" xmlns="http://www.w3.org/2000/svg">
<circle cx="12.776" cy="12.6557" r="12.623" fill="#69E120" fill-opacity="0.15"/>
<path d="M17.2852 15.7891C17.2852 16.8404 16.9432 17.7145 16.2592 18.4111C15.5751 19.0951 14.6695 19.5068 13.5421 19.6461V21.3372H12.3071V19.6651C11.2558 19.6018 10.3564 19.3168 9.60909 18.8101C8.86175 18.3035 8.32342 17.6131 7.99408 16.7391L9.8751 15.6561C10.3058 16.7581 11.1164 17.3788 12.3071 17.5181V13.5661C11.2178 13.1481 10.3754 12.7174 9.7801 12.2741C8.99476 11.6661 8.60209 10.7857 8.60209 9.63305C8.60209 8.5817 8.95676 7.72036 9.6661 7.04902C10.3628 6.39035 11.2431 6.01035 12.3071 5.90901V4.237H13.5421V5.92801C15.2268 6.15602 16.4048 7.02369 17.0762 8.53104L15.2331 9.59505C14.9038 8.77171 14.3401 8.27137 13.5421 8.09403V11.8561C14.0235 12.0461 14.3275 12.1664 14.4541 12.2171C15.2141 12.5211 15.7651 12.8314 16.1072 13.1481C16.9558 13.8701 17.3485 14.7504 17.2852 15.7891ZM10.7871 9.63305C10.7871 10.013 10.9011 10.3297 11.1291 10.5831C11.3571 10.8364 11.7498 11.0961 12.3071 11.3621V8.05603C11.8384 8.13203 11.4648 8.30937 11.1861 8.58804C10.9201 8.86671 10.7871 9.21504 10.7871 9.63305ZM13.5421 14.0411V17.4991C14.0361 17.3978 14.4161 17.1951 14.6821 16.8911C14.9608 16.5871 15.1001 16.2261 15.1001 15.8081C15.1001 15.4028 14.9798 15.0671 14.7391 14.8011C14.4985 14.5351 14.0995 14.2818 13.5421 14.0411Z" fill="#69E120"/>
</svg>
