<svg width="23" height="22" viewBox="0 0 23 22" fill="none" xmlns="http://www.w3.org/2000/svg">
<path fill-rule="evenodd" clip-rule="evenodd" d="M17.8922 0.747447C16.0564 1.88458 14.8146 3.70541 14.5484 5.65049C14.4817 6.13783 14.4853 6.77326 14.5554 6.88055C14.5867 6.92849 14.6473 6.9896 14.69 7.01635C14.8026 7.08684 21.733 7.08684 21.8457 7.01635C21.996 6.92226 22.0372 6.79158 22.0372 6.40994C22.0372 4.2123 20.7383 2.04501 18.6434 0.747447C18.4996 0.658274 18.3527 0.601074 18.2678 0.601074C18.1829 0.601074 18.0361 0.658274 17.8922 0.747447ZM14.2396 7.84154C14.1701 7.89407 14.0999 7.99733 14.0836 8.07106C14.0674 8.14482 14.0604 10.5073 14.0682 13.3212L14.0823 18.4372L14.201 18.5403C14.2663 18.5969 14.3599 18.6433 14.4091 18.6433C14.4823 18.6433 14.4984 18.6756 14.4984 18.8229C14.4984 18.9702 14.4823 19.0025 14.4091 19.0025C14.3599 19.0025 14.2663 19.0488 14.201 19.1054C14.0865 19.2047 14.0818 19.2325 14.0659 19.8891C14.0469 20.6714 14.0687 20.8112 14.2302 20.9429L14.3471 21.0382H18.2678H22.1885L22.3054 20.9429C22.4669 20.8112 22.4887 20.6714 22.4698 19.8891C22.4539 19.2325 22.4491 19.2047 22.3347 19.1054C22.2694 19.0488 22.1758 19.0025 22.1266 19.0025C22.0533 19.0025 22.0372 18.9702 22.0372 18.8229C22.0372 18.6756 22.0533 18.6433 22.1266 18.6433C22.1758 18.6433 22.2694 18.5969 22.3347 18.5403L22.4533 18.4372L22.4675 13.3212C22.4753 10.5073 22.4683 8.14482 22.4521 8.07106C22.4358 7.99733 22.3656 7.89407 22.2961 7.84154L22.1698 7.7461H18.2678H14.3659L14.2396 7.84154Z" fill="white" fill-opacity="0.7"/>
<path fill-rule="evenodd" clip-rule="evenodd" d="M4.66815 0.747447C2.83231 1.88458 1.59052 3.70541 1.32436 5.65049C1.25764 6.13783 1.26126 6.77326 1.33131 6.88055C1.36264 6.92849 1.42325 6.9896 1.46593 7.01635C1.57857 7.08684 8.50897 7.08684 8.62161 7.01635C8.7719 6.92226 8.81316 6.79158 8.81316 6.40994C8.81316 4.2123 7.51424 2.04501 5.41939 0.747447C5.27552 0.658274 5.12866 0.601074 5.04377 0.601074C4.95889 0.601074 4.81203 0.658274 4.66815 0.747447ZM1.01552 7.84154C0.946051 7.89407 0.875852 7.99733 0.85955 8.07106C0.843298 8.14482 0.836347 10.5073 0.84413 13.3212L0.858278 18.4372L0.97694 18.5403C1.04224 18.5969 1.13584 18.6433 1.18499 18.6433C1.25827 18.6433 1.27438 18.6756 1.27438 18.8229C1.27438 18.9702 1.25827 19.0025 1.18499 19.0025C1.13584 19.0025 1.04224 19.0488 0.97694 19.1054C0.862487 19.2047 0.85769 19.2325 0.841829 19.8891C0.822885 20.6714 0.844668 20.8112 1.00616 20.9429L1.12306 21.0382H5.04377H8.96448L9.08138 20.9429C9.24287 20.8112 9.26466 20.6714 9.24571 19.8891C9.22985 19.2325 9.22505 19.2047 9.1106 19.1054C9.0453 19.0488 8.9517 19.0025 8.90255 19.0025C8.82927 19.0025 8.81316 18.9702 8.81316 18.8229C8.81316 18.6756 8.82927 18.6433 8.90255 18.6433C8.9517 18.6433 9.0453 18.5969 9.1106 18.5403L9.22926 18.4372L9.24341 13.3212C9.2512 10.5073 9.24424 8.14482 9.22799 8.07106C9.21169 7.99733 9.14149 7.89407 9.07203 7.84154L8.94573 7.7461H5.04377H1.14181L1.01552 7.84154Z" fill="white" fill-opacity="0.7"/>
</svg>
