<svg width="15" height="15" viewBox="0 0 15 15" fill="none" xmlns="http://www.w3.org/2000/svg">
<path fill-rule="evenodd" clip-rule="evenodd" d="M7.25824 0.0189902C7.12718 0.0630785 6.9782 0.170914 6.88404 0.28991C6.82809 0.360598 6.47695 1.1799 5.92519 2.52719C5.44636 3.69638 5.05223 4.65639 5.04932 4.66058C5.04645 4.6648 4.03922 4.76358 2.81108 4.88013C0.367795 5.11201 0.453186 5.09745 0.224959 5.32126C0.0565252 5.48642 0.00175057 5.62948 0.000840597 5.90651C-0.000539042 6.33437 -0.0833174 6.2402 1.83004 7.98762C2.76091 8.83777 3.52004 9.54969 3.51695 9.56969C3.5139 9.58965 3.29263 10.6129 3.02527 11.8434C2.75792 13.074 2.53917 14.1215 2.53917 14.1712C2.53917 14.4927 2.80342 14.8629 3.0979 14.954C3.28887 15.0131 3.40027 15.0149 3.56923 14.9616C3.64042 14.9391 4.55438 14.3878 5.60024 13.7363L7.50185 12.5519L9.4012 13.7365C10.4459 14.388 11.359 14.9393 11.4304 14.9617C11.603 15.0158 11.7178 15.013 11.9071 14.9499C12.2043 14.8509 12.4608 14.4902 12.4608 14.1712C12.4608 14.1215 12.2421 13.074 11.9747 11.8434C11.7074 10.6129 11.4861 9.59021 11.4831 9.57085C11.48 9.55153 12.2389 8.84006 13.1695 7.98979C15.0832 6.24139 15.0005 6.33547 14.9992 5.90651C14.9983 5.62948 14.9435 5.48642 14.775 5.32126C14.5431 5.09382 14.6301 5.10871 12.1852 4.87799C10.9588 4.76227 9.95315 4.66431 9.95048 4.66027C9.94783 4.65627 9.55405 3.69666 9.07543 2.52783C8.50914 1.14483 8.17359 0.362738 8.11465 0.288228C7.96658 0.101144 7.79222 0.0129365 7.54826 0.00168512C7.43293 -0.00366539 7.30242 0.00416165 7.25824 0.0189902Z" fill="#E17B20"/>
</svg>
