<svg width="18" height="18" viewBox="0 0 18 18" fill="none" xmlns="http://www.w3.org/2000/svg">
<path fill-rule="evenodd" clip-rule="evenodd" d="M8.57063 0.737902C8.49248 0.76714 8.39123 0.827787 8.34569 0.872691C8.30011 0.917556 7.74332 2.05764 7.10834 3.40619L5.95384 5.85806L3.43334 6.23831C2.04705 6.44744 0.842565 6.64501 0.756729 6.67735C0.464507 6.78743 0.296087 7.11417 0.374383 7.41923C0.411164 7.56251 0.637105 7.80762 2.31783 9.52769C3.85428 11.1001 4.21633 11.4896 4.20224 11.555C4.19267 11.5994 3.99172 12.8191 3.75576 14.2652C3.46273 16.0609 3.3343 16.9371 3.35072 17.0289C3.37962 17.1907 3.55085 17.4054 3.70404 17.4719C3.96418 17.5849 4.04606 17.5481 6.29145 16.3084C7.46052 15.6629 8.50021 15.0926 8.60187 15.041L8.7867 14.9472L11.0786 16.2147C13.5012 17.5544 13.5701 17.5859 13.8324 17.4719C13.9856 17.4053 14.1568 17.1907 14.1858 17.0287C14.2022 16.9368 14.0732 16.0556 13.7784 14.2457C13.5412 12.7889 13.3398 11.57 13.331 11.537C13.3204 11.4975 13.9636 10.813 15.2129 9.53425C16.9383 7.76818 17.1153 7.5755 17.1577 7.41636C17.1947 7.27804 17.1951 7.21142 17.1597 7.09893C17.0926 6.88585 16.9262 6.70899 16.7443 6.65765C16.5887 6.61367 11.7909 5.87745 11.66 5.87745C11.6075 5.87745 11.3344 5.32942 10.4312 3.41158C9.62374 1.69694 9.23825 0.917711 9.16583 0.853806C9.07257 0.771483 8.8477 0.67931 8.74973 0.683226C8.7294 0.684079 8.64882 0.708664 8.57063 0.737902Z" fill="white" fill-opacity="0.21"/>
</svg>
