<svg width="13" height="15" viewBox="0 0 13 15" fill="none" xmlns="http://www.w3.org/2000/svg">
<g clip-path="url(#clip0_204_511)">
<path d="M6.40417 7.22555C7.4357 7.22555 8.32895 6.8695 9.05881 6.16706C9.78866 5.46475 10.1586 4.60542 10.1586 3.61267C10.1586 2.62021 9.78866 1.76079 9.05868 1.05823C8.32871 0.356014 7.43558 0 6.40417 0C5.37248 0 4.47944 0.356014 3.74962 1.05835C3.0198 1.76068 2.64968 2.62013 2.64968 3.61267C2.64968 4.60542 3.01977 5.46487 3.74974 6.1672C4.47972 6.86942 5.37285 7.22555 6.40417 7.22555ZM12.9735 11.5342C12.9524 11.242 12.9098 10.9231 12.8471 10.5864C12.7839 10.2472 12.7024 9.92656 12.6049 9.63348C12.5042 9.33055 12.3672 9.03143 12.1979 8.74473C12.0221 8.44719 11.8156 8.18809 11.5839 7.9749C11.3417 7.75186 11.0451 7.57254 10.7021 7.4417C10.3603 7.31162 9.98153 7.2457 9.57637 7.2457C9.41723 7.2457 9.26336 7.30852 8.96616 7.49473C8.7549 7.6271 8.54301 7.75855 8.3305 7.88906C8.12631 8.01428 7.84969 8.13158 7.50801 8.23778C7.17467 8.34158 6.83621 8.39422 6.50214 8.39422C6.1681 8.39422 5.82973 8.34158 5.49603 8.23778C5.15474 8.13167 4.87812 8.01439 4.67414 7.88918C4.43758 7.74372 4.22356 7.61098 4.0379 7.49458C3.74107 7.3084 3.58705 7.24556 3.42794 7.24556C3.02263 7.24556 2.64399 7.31159 2.3023 7.44185C1.95955 7.57242 1.66284 7.75175 1.42035 7.97502C1.18881 8.18833 0.982245 8.44728 0.8067 8.74473C0.637488 9.0314 0.500486 9.33043 0.399622 9.63359C0.302198 9.92668 0.220758 10.2472 0.157494 10.5864C0.0948082 10.9227 0.0522463 11.2416 0.0311784 11.5346C0.0102209 11.8294 -0.000167013 12.1248 3.33616e-05 12.4203C3.33616e-05 13.2033 0.258693 13.8372 0.768766 14.3047C1.27254 14.766 1.9391 15.0001 2.74969 15.0001H10.2553C11.0659 15.0001 11.7322 14.7662 12.2361 14.3047C12.7463 13.8376 13.005 13.2036 13.005 12.4202C13.0049 12.118 12.9943 11.8199 12.9735 11.5342Z" fill="#E12043"/>
</g>
<defs>
<clipPath id="clip0_204_511">
<rect width="13" height="15" fill="white"/>
</clipPath>
</defs>
</svg>
